<svg width="186" height="45" viewBox="0 0 186 45" fill="none" xmlns="http://www.w3.org/2000/svg">
<path d="M96 11H4C2.89543 11 2 10.1046 2 9C2 7.89543 2.89543 7 4 7H96C97.1046 7 98 7.89543 98 9C98 10.1046 97.1046 11 96 11Z" fill="#9A7777" stroke="#FFF0F0"/>
<path d="M135 8C135 6.34315 136.343 5 138 5C139.657 5 141 6.34315 141 8C141 9.65685 139.657 11 138 11C136.343 11 135 9.65685 135 8Z" fill="#C39191" stroke="#FFF0F0" stroke-width="1.5"/>
<path d="M144 8C144 6.34315 145.343 5 147 5C148.657 5 150 6.34315 150 8C150 9.65685 148.657 11 147 11C145.343 11 144 9.65685 144 8Z" fill="#845353" stroke="#FFF0F0" stroke-width="1.5"/>
<path d="M153 8C153 6.34315 154.343 5 156 5C157.657 5 159 6.34315 159 8C159 9.65685 157.657 11 156 11C154.343 11 153 9.65685 153 8Z" fill="#5F2323" stroke="#FFF0F0" stroke-width="1.5"/>
<path d="M22.71 16.14C24.75 16.14 26.39 16.77 27.63 18.03C28.89 19.27 29.52 21.01 29.52 23.25V33H25.32V23.82C25.32 22.52 24.99 21.53 24.33 20.85C23.67 20.15 22.77 19.8 21.63 19.8C20.49 19.8 19.58 20.15 18.9 20.85C18.24 21.53 17.91 22.52 17.91 23.82V33H13.71V23.82C13.71 22.52 13.38 21.53 12.72 20.85C12.06 20.15 11.16 19.8 10.02 19.8C8.86 19.8 7.94 20.15 7.26 20.85C6.6 21.53 6.27 22.52 6.27 23.82V33H2.07V16.38H6.27V18.39C6.81 17.69 7.5 17.14 8.34 16.74C9.2 16.34 10.14 16.14 11.16 16.14C12.46 16.14 13.62 16.42 14.64 16.98C15.66 17.52 16.45 18.3 17.01 19.32C17.55 18.36 18.33 17.59 19.35 17.01C20.39 16.43 21.51 16.14 22.71 16.14ZM32.4255 24.63C32.4255 22.95 32.7555 21.46 33.4155 20.16C34.0955 18.86 35.0055 17.86 36.1455 17.16C37.3055 16.46 38.5955 16.11 40.0155 16.11C41.2555 16.11 42.3355 16.36 43.2555 16.86C44.1955 17.36 44.9455 17.99 45.5055 18.75V16.38H49.7355V33H45.5055V30.57C44.9655 31.35 44.2155 32 43.2555 32.52C42.3155 33.02 41.2255 33.27 39.9855 33.27C38.5855 33.27 37.3055 32.91 36.1455 32.19C35.0055 31.47 34.0955 30.46 33.4155 29.16C32.7555 27.84 32.4255 26.33 32.4255 24.63ZM45.5055 24.69C45.5055 23.67 45.3055 22.8 44.9055 22.08C44.5055 21.34 43.9655 20.78 43.2855 20.4C42.6055 20 41.8755 19.8 41.0955 19.8C40.3155 19.8 39.5955 19.99 38.9355 20.37C38.2755 20.75 37.7355 21.31 37.3155 22.05C36.9155 22.77 36.7155 23.63 36.7155 24.63C36.7155 25.63 36.9155 26.51 37.3155 27.27C37.7355 28.01 38.2755 28.58 38.9355 28.98C39.6155 29.38 40.3355 29.58 41.0955 29.58C41.8755 29.58 42.6055 29.39 43.2855 29.01C43.9655 28.61 44.5055 28.05 44.9055 27.33C45.3055 26.59 45.5055 25.71 45.5055 24.69ZM63.0476 16.14C65.0276 16.14 66.6276 16.77 67.8476 18.03C69.0676 19.27 69.6776 21.01 69.6776 23.25V33H65.4776V23.82C65.4776 22.5 65.1476 21.49 64.4876 20.79C63.8276 20.07 62.9276 19.71 61.7876 19.71C60.6276 19.71 59.7076 20.07 59.0276 20.79C58.3676 21.49 58.0376 22.5 58.0376 23.82V33H53.8376V16.38H58.0376V18.45C58.5976 17.73 59.3076 17.17 60.1676 16.77C61.0476 16.35 62.0076 16.14 63.0476 16.14ZM80.1816 16.11C81.4216 16.11 82.5116 16.36 83.4516 16.86C84.3916 17.34 85.1316 17.97 85.6716 18.75V16.38H89.9016V33.12C89.9016 34.66 89.5916 36.03 88.9716 37.23C88.3516 38.45 87.4216 39.41 86.1816 40.11C84.9416 40.83 83.4416 41.19 81.6816 41.19C79.3216 41.19 77.3816 40.64 75.8616 39.54C74.3616 38.44 73.5116 36.94 73.3116 35.04H77.4816C77.7016 35.8 78.1716 36.4 78.8916 36.84C79.6316 37.3 80.5216 37.53 81.5616 37.53C82.7816 37.53 83.7716 37.16 84.5316 36.42C85.2916 35.7 85.6716 34.6 85.6716 33.12V30.54C85.1316 31.32 84.3816 31.97 83.4216 32.49C82.4816 33.01 81.4016 33.27 80.1816 33.27C78.7816 33.27 77.5016 32.91 76.3416 32.19C75.1816 31.47 74.2616 30.46 73.5816 29.16C72.9216 27.84 72.5916 26.33 72.5916 24.63C72.5916 22.95 72.9216 21.46 73.5816 20.16C74.2616 18.86 75.1716 17.86 76.3116 17.16C77.4716 16.46 78.7616 16.11 80.1816 16.11ZM85.6716 24.69C85.6716 23.67 85.4716 22.8 85.0716 22.08C84.6716 21.34 84.1316 20.78 83.4516 20.4C82.7716 20 82.0416 19.8 81.2616 19.8C80.4816 19.8 79.7616 19.99 79.1016 20.37C78.4416 20.75 77.9016 21.31 77.4816 22.05C77.0816 22.77 76.8816 23.63 76.8816 24.63C76.8816 25.63 77.0816 26.51 77.4816 27.27C77.9016 28.01 78.4416 28.58 79.1016 28.98C79.7816 29.38 80.5016 29.58 81.2616 29.58C82.0416 29.58 82.7716 29.39 83.4516 29.01C84.1316 28.61 84.6716 28.05 85.0716 27.33C85.4716 26.59 85.6716 25.71 85.6716 24.69ZM92.9236 24.63C92.9236 22.95 93.2536 21.46 93.9136 20.16C94.5936 18.86 95.5036 17.86 96.6436 17.16C97.8036 16.46 99.0936 16.11 100.514 16.11C101.754 16.11 102.834 16.36 103.754 16.86C104.694 17.36 105.444 17.99 106.004 18.75V16.38H110.234V33H106.004V30.57C105.464 31.35 104.714 32 103.754 32.52C102.814 33.02 101.724 33.27 100.484 33.27C99.0836 33.27 97.8036 32.91 96.6436 32.19C95.5036 31.47 94.5936 30.46 93.9136 29.16C93.2536 27.84 92.9236 26.33 92.9236 24.63ZM106.004 24.69C106.004 23.67 105.804 22.8 105.404 22.08C105.004 21.34 104.464 20.78 103.784 20.4C103.104 20 102.374 19.8 101.594 19.8C100.814 19.8 100.094 19.99 99.4336 20.37C98.7736 20.75 98.2336 21.31 97.8136 22.05C97.4136 22.77 97.2136 23.63 97.2136 24.63C97.2136 25.63 97.4136 26.51 97.8136 27.27C98.2336 28.01 98.7736 28.58 99.4336 28.98C100.114 29.38 100.834 29.58 101.594 29.58C102.374 29.58 103.104 29.39 103.784 29.01C104.464 28.61 105.004 28.05 105.404 27.33C105.804 26.59 106.004 25.71 106.004 24.69ZM127.266 12.06V15.45H118.536V20.82H125.226V24.15H118.536V33H114.336V12.06H127.266ZM145.694 24.33C145.694 24.93 145.654 25.47 145.574 25.95H133.424C133.524 27.15 133.944 28.09 134.684 28.77C135.424 29.45 136.334 29.79 137.414 29.79C138.974 29.79 140.084 29.12 140.744 27.78H145.274C144.794 29.38 143.874 30.7 142.514 31.74C141.154 32.76 139.484 33.27 137.504 33.27C135.904 33.27 134.464 32.92 133.184 32.22C131.924 31.5 130.934 30.49 130.214 29.19C129.514 27.89 129.164 26.39 129.164 24.69C129.164 22.97 129.514 21.46 130.214 20.16C130.914 18.86 131.894 17.86 133.154 17.16C134.414 16.46 135.864 16.11 137.504 16.11C139.084 16.11 140.494 16.45 141.734 17.13C142.994 17.81 143.964 18.78 144.644 20.04C145.344 21.28 145.694 22.71 145.694 24.33ZM141.344 23.13C141.324 22.05 140.934 21.19 140.174 20.55C139.414 19.89 138.484 19.56 137.384 19.56C136.344 19.56 135.464 19.88 134.744 20.52C134.044 21.14 133.614 22.01 133.454 23.13H141.344ZM164.209 24.33C164.209 24.93 164.169 25.47 164.089 25.95H151.939C152.039 27.15 152.459 28.09 153.199 28.77C153.939 29.45 154.849 29.79 155.929 29.79C157.489 29.79 158.599 29.12 159.259 27.78H163.789C163.309 29.38 162.389 30.7 161.029 31.74C159.669 32.76 157.999 33.27 156.019 33.27C154.419 33.27 152.979 32.92 151.699 32.22C150.439 31.5 149.449 30.49 148.729 29.19C148.029 27.89 147.679 26.39 147.679 24.69C147.679 22.97 148.029 21.46 148.729 20.16C149.429 18.86 150.409 17.86 151.669 17.16C152.929 16.46 154.379 16.11 156.019 16.11C157.599 16.11 159.009 16.45 160.249 17.13C161.509 17.81 162.479 18.78 163.159 20.04C163.859 21.28 164.209 22.71 164.209 24.33ZM159.859 23.13C159.839 22.05 159.449 21.19 158.689 20.55C157.929 19.89 156.999 19.56 155.899 19.56C154.859 19.56 153.979 19.88 153.259 20.52C152.559 21.14 152.129 22.01 151.969 23.13H159.859ZM166.195 24.63C166.195 22.95 166.525 21.46 167.185 20.16C167.865 18.86 168.785 17.86 169.945 17.16C171.105 16.46 172.395 16.11 173.815 16.11C174.895 16.11 175.925 16.35 176.905 16.83C177.885 17.29 178.665 17.91 179.245 18.69V10.8H183.505V33H179.245V30.54C178.725 31.36 177.995 32.02 177.055 32.52C176.115 33.02 175.025 33.27 173.785 33.27C172.385 33.27 171.105 32.91 169.945 32.19C168.785 31.47 167.865 30.46 167.185 29.16C166.525 27.84 166.195 26.33 166.195 24.63ZM179.275 24.69C179.275 23.67 179.075 22.8 178.675 22.08C178.275 21.34 177.735 20.78 177.055 20.4C176.375 20 175.645 19.8 174.865 19.8C174.085 19.8 173.365 19.99 172.705 20.37C172.045 20.75 171.505 21.31 171.085 22.05C170.685 22.77 170.485 23.63 170.485 24.63C170.485 25.63 170.685 26.51 171.085 27.27C171.505 28.01 172.045 28.58 172.705 28.98C173.385 29.38 174.105 29.58 174.865 29.58C175.645 29.58 176.375 29.39 177.055 29.01C177.735 28.61 178.275 28.05 178.675 27.33C179.075 26.59 179.275 25.71 179.275 24.69Z" fill="#C83D3E"/>
</svg>
