<svg width="24" height="24" viewBox="0 0 24 24" fill="none" xmlns="http://www.w3.org/2000/svg">
<path d="M22 20.9324C22 21.2155 21.8829 21.4871 21.6746 21.6873C21.4662 21.8875 21.1836 22 20.8889 22H3.11111C2.81643 22 2.53381 21.8875 2.32544 21.6873C2.11706 21.4871 2 21.2155 2 20.9324V9.71091C1.99988 9.54823 2.03846 9.38766 2.1128 9.24149C2.18713 9.09532 2.29524 8.9674 2.42889 8.86751L11.3178 2.22494C11.5128 2.07915 11.7529 2 12 2C12.2471 2 12.4872 2.07915 12.6822 2.22494L21.5711 8.86751C21.7048 8.9674 21.8129 9.09532 21.8872 9.24149C21.9615 9.38766 22.0001 9.54823 22 9.71091V20.9324ZM19.7778 19.8648V10.233L12 4.41991L4.22222 10.233V19.8648H19.7778Z" fill="white"/>
</svg>
